<?xml version="1.0" encoding="utf-8"?>
<!-- Generator: Adobe Illustrator 24.1.0, SVG Export Plug-In . SVG Version: 6.00 Build 0)  -->
<svg version="1.1" id="Capa_1" xmlns="http://www.w3.org/2000/svg" xmlns:xlink="http://www.w3.org/1999/xlink" x="0px" y="0px"
	 viewBox="0 0 229.3 65.7" style="enable-background:new 0 0 229.3 65.7;" xml:space="preserve">
<style type="text/css">
	.st0{enable-background:new    ;}
	.st1{fill:#88898C;}
	.st2{fill:#0C216E;}
</style>
<g class="st0">
	<path class="st1" d="M161.6,47.9h1l4.4,9.8h-1.4l-1.3-2.9h-4.2l-1.2,2.9h-1.4L161.6,47.9z M163.7,53.6l-1.6-3.5l-1.5,3.5H163.7z"/>
	<path class="st1" d="M169.3,51.3v1.5l0.1-0.1c0.6-1,1.2-1.5,1.8-1.5c0.5,0,1,0.2,1.5,0.7L172,53c-0.4-0.4-0.9-0.6-1.2-0.6
		c-0.4,0-0.8,0.2-1.1,0.6c-0.3,0.4-0.5,0.9-0.5,1.4v3.4h-1.3v-6.4h1.4L169.3,51.3L169.3,51.3z"/>
	<path class="st1" d="M173.3,53.5c0-0.7,0.3-1.2,0.8-1.6c0.5-0.4,1.2-0.6,2.1-0.6h2.7v1h-1.3c0.3,0.3,0.4,0.5,0.5,0.7
		s0.1,0.5,0.1,0.7c0,0.3-0.1,0.7-0.3,1s-0.4,0.6-0.7,0.7s-0.8,0.3-1.5,0.4c-0.5,0.1-0.7,0.2-0.7,0.5c0,0.1,0.1,0.3,0.3,0.4
		s0.5,0.2,1,0.3c0.8,0.2,1.3,0.3,1.5,0.4c0.2,0.1,0.4,0.2,0.6,0.4c0.3,0.3,0.5,0.7,0.5,1.2c0,0.6-0.3,1.1-0.8,1.5s-1.3,0.5-2.2,0.5
		s-1.7-0.2-2.2-0.5c-0.5-0.4-0.8-0.9-0.8-1.5c0-0.9,0.5-1.4,1.6-1.7c-0.4-0.3-0.6-0.5-0.6-0.8c0-0.2,0.1-0.4,0.3-0.6
		s0.4-0.3,0.7-0.4C173.7,55.1,173.3,54.4,173.3,53.5z M175.3,58c-0.4,0-0.8,0.1-1.1,0.3s-0.4,0.4-0.4,0.7c0,0.7,0.6,1,1.8,1
		c0.6,0,1-0.1,1.3-0.2c0.3-0.2,0.5-0.4,0.5-0.7s-0.2-0.5-0.6-0.7C176.5,58.1,176,58,175.3,58z M175.6,52.4c-0.3,0-0.6,0.1-0.9,0.3
		c-0.2,0.2-0.4,0.5-0.4,0.8s0.1,0.6,0.4,0.8c0.2,0.2,0.5,0.3,0.9,0.3s0.7-0.1,0.9-0.3s0.4-0.5,0.4-0.8s-0.1-0.6-0.4-0.8
		C176.3,52.5,176,52.4,175.6,52.4z"/>
	<path class="st1" d="M185.2,54.6h-4.5c0,0.6,0.2,1.1,0.6,1.5c0.4,0.4,0.9,0.5,1.5,0.5c0.8,0,1.6-0.3,2.3-0.8V57
		c-0.4,0.3-0.8,0.4-1.2,0.6c-0.4,0.1-0.8,0.2-1.4,0.2c-0.7,0-1.3-0.1-1.7-0.4c-0.4-0.3-0.8-0.7-1.1-1.2s-0.4-1.1-0.4-1.7
		c0-1,0.3-1.8,0.8-2.4c0.6-0.6,1.3-0.9,2.2-0.9s1.5,0.3,2,0.9s0.8,1.4,0.8,2.4L185.2,54.6L185.2,54.6z M180.7,53.8h3.2
		c0-0.5-0.2-0.9-0.5-1.2s-0.6-0.4-1.1-0.4s-0.8,0.1-1.1,0.4S180.8,53.3,180.7,53.8z"/>
	<path class="st1" d="M187.8,51.3v0.8c0.6-0.6,1.2-0.9,1.9-0.9c0.4,0,0.8,0.1,1.1,0.3s0.6,0.5,0.8,0.9s0.3,0.9,0.3,1.7v3.7h-1.3
		v-3.7c0-0.7-0.1-1.1-0.3-1.4c-0.2-0.3-0.5-0.4-1-0.4c-0.6,0-1.1,0.3-1.5,0.9v4.6h-1.3v-6.4L187.8,51.3L187.8,51.3z"/>
	<path class="st1" d="M192.8,52.3l2.4-2.4v1.3h2v1.1h-2v3.2c0,0.7,0.3,1.1,0.9,1.1c0.5,0,0.9-0.2,1.4-0.5v1.2
		c-0.5,0.3-1,0.4-1.6,0.4s-1.1-0.2-1.5-0.5c-0.1-0.1-0.2-0.2-0.3-0.3s-0.1-0.3-0.2-0.5s-0.1-0.6-0.1-1.2v-2.9h-1.1l0,0
		C192.7,52.3,192.8,52.3,192.8,52.3z"/>
	<path class="st1" d="M199.2,48.6c0.2,0,0.4,0.1,0.5,0.2s0.2,0.3,0.2,0.5s-0.1,0.4-0.2,0.5s-0.3,0.2-0.5,0.2s-0.4-0.1-0.5-0.2
		c-0.1-0.2-0.2-0.3-0.2-0.5s0.1-0.4,0.2-0.5S199,48.6,199.2,48.6z M198.5,51.3h1.3v6.4h-1.3V51.3z"/>
	<path class="st1" d="M202.9,51.3v0.8c0.6-0.6,1.2-0.9,1.9-0.9c0.4,0,0.8,0.1,1.1,0.3s0.6,0.5,0.8,0.9s0.3,0.9,0.3,1.7v3.7h-1.3
		v-3.7c0-0.7-0.1-1.1-0.3-1.4c-0.2-0.3-0.5-0.4-1-0.4c-0.6,0-1.1,0.3-1.5,0.9v4.6h-1.3v-6.4L202.9,51.3L202.9,51.3z"/>
	<path class="st1" d="M212.9,53.8v2.7c0,0.2,0.1,0.3,0.2,0.3c0.2,0,0.4-0.1,0.7-0.3v0.8c-0.3,0.2-0.5,0.3-0.7,0.4
		c-0.2,0.1-0.4,0.1-0.5,0.1c-0.5,0-0.9-0.2-1-0.6c-0.5,0.4-1.1,0.6-1.7,0.6c-0.4,0-0.8-0.1-1.1-0.4c-0.3-0.3-0.4-0.7-0.4-1.1
		c0-0.4,0.1-0.8,0.4-1.1c0.3-0.3,0.7-0.6,1.2-0.8l1.6-0.6v-0.3c0-0.8-0.4-1.2-1.2-1.2c-0.7,0-1.4,0.4-2,1.1V52
		c0.5-0.6,1.2-0.9,2.1-0.9c0.7,0,1.3,0.2,1.7,0.5c0.1,0.1,0.3,0.3,0.4,0.5c0.1,0.2,0.2,0.4,0.2,0.6
		C212.9,52.9,212.9,53.3,212.9,53.8z M211.6,56.4v-1.9l-0.9,0.3c-0.4,0.2-0.7,0.3-0.9,0.5s-0.3,0.4-0.3,0.7s0.1,0.5,0.3,0.7
		s0.4,0.3,0.7,0.3C210.9,56.9,211.3,56.8,211.6,56.4z"/>
</g>
<g>
	<g>
		<g>
			<g>
				<g>
					<path class="st1" d="M95,24.3v8.1l0,0l6.4-8.1h3.9l-6.5,8.3l8.5,9.3H103l-8-8.6v8.6h-3.4V24.3H95z"/>
					<path class="st1" d="M111.1,29.9c1.7,0,3.1,0.6,4.1,1.7s1.5,2.6,1.5,4.6v0.5h-8.3c0.1,1,0.5,1.9,1.2,2.4
						c0.7,0.6,1.6,0.8,2.7,0.8c0.7,0,1.4-0.1,2.1-0.4c0.7-0.3,1.4-0.6,2.1-1.2v2.3c-1.4,1-3,1.5-5,1.5c-1.9,0-3.4-0.6-4.5-1.7
						c-1.2-1.1-1.8-2.6-1.8-4.5c0-1.8,0.5-3.2,1.6-4.4C108,30.5,109.4,29.9,111.1,29.9z M113.8,34.7c-0.1-0.9-0.3-1.5-0.8-2
						c-0.4-0.5-1-0.7-1.8-0.7s-1.4,0.2-1.9,0.7s-0.8,1.1-0.9,2H113.8L113.8,34.7z"/>
					<path class="st1" d="M123.6,29.9c1.7,0,3.1,0.6,4.1,1.7s1.5,2.6,1.5,4.6v0.5h-8.3c0.1,1,0.5,1.9,1.2,2.4s1.6,0.8,2.7,0.8
						c0.7,0,1.4-0.1,2.1-0.4c0.7-0.3,1.4-0.6,2.1-1.2v2.3c-1.4,1-3,1.5-5,1.5c-1.9,0-3.4-0.6-4.5-1.7c-1.2-1.1-1.8-2.6-1.8-4.5
						c0-1.8,0.5-3.2,1.6-4.4C120.5,30.5,121.9,29.9,123.6,29.9z M126.3,34.7c-0.1-0.9-0.3-1.5-0.8-2c-0.4-0.5-1-0.7-1.8-0.7
						s-1.4,0.2-1.9,0.7s-0.8,1.1-0.9,2H126.3L126.3,34.7z"/>
					<path class="st1" d="M136.7,29.9c1.7,0,3,0.6,4.1,1.7c1,1.1,1.5,2.6,1.5,4.4c0,1.2-0.2,2.2-0.7,3.2c-0.5,0.9-1.2,1.7-2.1,2.2
						c-0.9,0.5-1.9,0.8-3,0.8c-0.9,0-1.8-0.2-2.8-0.7v6.4h-3.1V30.1h3.1v0.8C134.6,30.2,135.6,29.9,136.7,29.9z M133.7,39.1
						c0.8,0.4,1.5,0.7,2.2,0.7c1,0,1.8-0.3,2.3-1c0.6-0.7,0.9-1.6,0.9-2.7c0-1.2-0.3-2.1-0.8-2.8s-1.3-1-2.2-1c-0.4,0-0.7,0.1-1,0.2
						c-0.3,0.1-0.8,0.4-1.3,0.8L133.7,39.1L133.7,39.1z"/>
					<path class="st2" d="M149.2,24.1c1.7,0,3.4,0.4,4.9,1.3v3c-1.8-1.1-3.4-1.6-4.8-1.6c-0.9,0-1.5,0.2-2,0.5s-0.7,0.8-0.7,1.3
						c0,0.7,0.4,1.3,1.3,1.8c0.3,0.2,1.2,0.6,2.9,1.4c1.4,0.7,2.5,1.4,3.1,2.3c0.6,0.8,1,1.8,1,3c0,1.5-0.5,2.7-1.6,3.7
						c-1.1,0.9-2.5,1.4-4.2,1.4c-1.1,0-2.1-0.1-2.9-0.4c-0.8-0.2-1.7-0.7-2.7-1.3v-3.3c1.9,1.6,3.6,2.3,5.3,2.3c0.8,0,1.5-0.2,2-0.5
						c0.5-0.4,0.8-0.8,0.8-1.4c0-0.8-0.4-1.5-1.3-2c-0.7-0.4-1.7-0.9-2.9-1.4c-1.4-0.6-2.4-1.4-3.1-2.2c-0.7-0.8-1-1.8-1-2.9
						c0-1.5,0.5-2.7,1.6-3.5C145.9,24.5,147.4,24.1,149.2,24.1z"/>
					<path class="st2" d="M163.2,29.9c0.9,0,1.7,0.2,2.3,0.6s1.1,1,1.4,1.7c0.7-0.8,1.3-1.4,2-1.8s1.4-0.6,2.2-0.6
						c1.2,0,2.2,0.4,3,1.2c0.8,0.8,1.1,1.9,1.1,3.2v7.5h-3.1v-7c0-0.8-0.2-1.5-0.5-1.9c-0.3-0.5-0.9-0.7-1.5-0.7
						c-0.9,0-1.9,0.6-2.7,1.8v7.8h-3.1v-7.1c0-0.8-0.2-1.4-0.6-1.9c-0.4-0.5-0.9-0.7-1.5-0.7c-0.5,0-1,0.1-1.4,0.4
						c-0.4,0.3-0.9,0.8-1.3,1.4v7.8h-3.1V30.1h3.1v1.6c0.6-0.6,1.1-1.1,1.7-1.4C161.8,30,162.5,29.9,163.2,29.9z"/>
					<path class="st2" d="M178.8,24.7c0.5,0,0.9,0.2,1.2,0.5s0.5,0.8,0.5,1.2c0,0.5-0.2,0.9-0.5,1.2c-0.3,0.4-0.8,0.5-1.2,0.5
						c-0.5,0-0.9-0.2-1.2-0.5c-0.3-0.4-0.5-0.8-0.5-1.2c0-0.5,0.2-0.9,0.5-1.2C178,24.9,178.4,24.7,178.8,24.7z M180.4,30.1v11.7
						h-3.1V30.1H180.4z"/>
					<path class="st2" d="M185.8,24.3v17.6h-3.1V24.3H185.8z"/>
					<path class="st2" d="M189.6,24.7c0.5,0,0.9,0.2,1.2,0.5s0.5,0.8,0.5,1.2c0,0.5-0.2,0.9-0.5,1.2c-0.3,0.4-0.8,0.5-1.2,0.5
						c-0.5,0-0.9-0.2-1.2-0.5c-0.3-0.4-0.5-0.8-0.5-1.2c0-0.5,0.2-0.9,0.5-1.2C188.7,24.9,189.1,24.7,189.6,24.7z M191.1,30.1v11.7
						H188V30.1H191.1z"/>
					<path class="st2" d="M200.1,29.9c1.3,0,2.3,0.4,3,1.2c0.8,0.8,1.1,1.9,1.1,3.3v7.5h-3.1v-7.2c0-0.8-0.2-1.4-0.5-1.8
						c-0.4-0.4-0.9-0.7-1.5-0.7c-0.5,0-0.9,0.1-1.3,0.4c-0.4,0.3-0.9,0.7-1.4,1.4v7.8h-3.1V30.1h3.1v1.6c0.6-0.7,1.2-1.2,1.8-1.4
						C198.7,30,199.4,29.9,200.1,29.9z"/>
					<path class="st2" d="M217,30.1v2.2h-2c0.3,0.4,0.6,0.8,0.7,1.1c0.1,0.3,0.2,0.7,0.2,1.1c0,0.9-0.4,1.8-1.1,2.6
						c-0.6,0.7-1.7,1.1-3.2,1.3c-0.8,0.1-1.4,0.2-1.6,0.3c-0.3,0.1-0.4,0.3-0.4,0.6c0,0.2,0.2,0.4,0.5,0.6c0.3,0.1,0.8,0.3,1.6,0.4
						c1.8,0.3,3.1,0.7,3.9,1.3c0.8,0.6,1.3,1.4,1.3,2.3c0,1.2-0.5,2.2-1.5,2.9s-2.5,1-4.4,1c-1.8,0-3.2-0.3-4.3-0.9
						c-1.1-0.6-1.6-1.5-1.6-2.5c0-1.5,1-2.5,3.1-3.1c-0.9-0.4-1.3-0.9-1.3-1.5c0-0.8,0.7-1.4,2-1.7V38c-0.9-0.3-1.6-0.7-2.2-1.3
						c-0.5-0.6-0.8-1.4-0.8-2.3c0-1.3,0.5-2.3,1.4-3.1c1-0.8,2.2-1.2,3.7-1.2H217L217,30.1z M207.9,44.2c0,1,1,1.6,3.1,1.6
						c0.9,0,1.6-0.1,2.1-0.4c0.5-0.3,0.8-0.7,0.8-1.1c0-0.5-0.3-0.9-0.9-1.2c-0.6-0.3-1.4-0.4-2.5-0.4c-0.8,0-1.4,0.1-1.9,0.4
						C208.1,43.4,207.9,43.7,207.9,44.2z M208.6,34.4c0,0.6,0.2,1.1,0.6,1.5c0.4,0.4,1,0.6,1.6,0.6s1.2-0.2,1.6-0.6
						c0.4-0.4,0.6-1,0.6-1.6s-0.2-1.1-0.6-1.5c-0.4-0.4-0.9-0.6-1.5-0.6s-1.1,0.2-1.6,0.6C208.9,33.3,208.6,33.8,208.6,34.4z"/>
				</g>
			</g>
		</g>
	</g>
	<g>
		<g>
			<g>
				<g>
					<path class="st1" d="M73.8,9.1c-2.6-1.9-6-2.8-10.4-2.8s-8,1-10.6,2.9c-1.9,1.4-3.1,3.2-3.6,5.4c-0.2,0.8-0.3,1.6-0.3,2.5
						c0,2.3,0.7,4.2,2.2,5.6c1.4,1.3,3.8,2.5,7.1,3.5c4.6-0.4,9-1,13.4-1.8c-1.8-0.7-3.7-1.3-5.9-1.9l-1.1-0.3
						c-6.4-1.6-9.6-3.7-9.6-6.1c0-0.5,0.1-1,0.2-1.5c0.4-1,1-1.8,2-2.4c1.4-1,3.4-1.5,6.1-1.5c2.7,0,4.8,0.6,6.3,1.7
						c0.8,0.6,1.4,1.3,1.9,2.2c0.4,0.8,0.6,1.6,0.7,2.6h6.2c0-0.9-0.2-1.8-0.5-2.6C77,12.3,75.7,10.5,73.8,9.1z"/>
				</g>
			</g>
			<g>
				<path class="st1" d="M22.7,24.3c4,0.9,8.2,1.5,12.7,1.8l-3.1-4L47.6,6.4h-8.3L22.7,24.3z"/>
			</g>
			<g>
				<path class="st1" d="M21.3,6.4H15v15.9c2,0.6,4.1,1.2,6.3,1.7V6.4z"/>
			</g>
		</g>
		<g>
			<path class="st1" d="M82,13.3L82,13.3c0.5,0,0.9,0.2,1.2,0.5c0.3,0.3,0.5,0.8,0.5,1.2c0,0.5-0.2,0.9-0.5,1.2
				c-0.3,0.3-0.7,0.5-1.2,0.5s-0.9-0.2-1.2-0.5c-0.3-0.3-0.5-0.8-0.5-1.2c0-0.5,0.2-0.9,0.5-1.2C81.1,13.5,81.5,13.3,82,13.3z
				 M82,13L82,13c-0.6,0-1.1,0.2-1.5,0.6c-0.4,0.4-0.6,0.9-0.6,1.5s0.2,1,0.6,1.5c0.4,0.4,0.9,0.6,1.5,0.6s1.1-0.2,1.5-0.6
				s0.6-0.9,0.6-1.5s-0.2-1.1-0.6-1.5C83,13.2,82.6,13,82,13z"/>
			<path class="st1" d="M81.9,14.2c0.4,0,0.6,0.1,0.6,0.4c0,0.2-0.2,0.4-0.6,0.4h-0.3v-0.8C81.6,14.2,81.9,14.2,81.9,14.2z
				 M82.8,14.5c0-0.2-0.1-0.4-0.2-0.5l-0.7-0.2L81.2,14v2.3h0.4v-1h0.2c0.3,0,0.5,0.1,0.5,0.4l0.1,0.6h0.4l-0.1-0.6
				c0-0.3-0.1-0.5-0.4-0.6l0,0C82.7,15,82.8,14.8,82.8,14.5z"/>
		</g>
		<path class="st2" d="M88.8,19.5c-0.2-0.3-0.7-0.4-1-0.2L85.2,21c-2.4,1.3-5,2.5-7.8,3.5c-9.2,3.4-19.5,5.2-30.6,5.2
			c-12.1,0-22.6-1.7-31-5.2c-4.1-1.7-7.1-3.4-8.9-5.1c-0.3-0.3-0.7-0.3-1,0s-0.3,0.7-0.1,1c1.9,2.4,4.8,4.7,8.8,7.2
			c0.1,0.1,0.3,0.2,0.4,0.2v16.8h6.3V31.1c3.9,1.7,8.2,3,12.5,3.8c0.3,0,0.5,0.1,0.8,0.1l7,9.6h7.8l-6.6-8.7
			c1.3,0.1,2.4,0.1,3.6,0.1c9,0,17.4-1.6,25-4.6c0.1,0,0.1-0.1,0.2-0.1c0.1,0.1,0.2,0.3,0.2,0.4c0.4,0.6,0.6,1.4,0.6,2.1
			c0,1.9-0.8,3.4-2.3,4.5c-1.6,1.1-3.8,1.6-6.6,1.6c-3,0-5.4-0.7-7-2c-0.5-0.4-0.9-0.9-1.1-1.2l-6.6,0.4c0.7,1.6,1.8,3,3.2,4.1
			c2.7,2.2,6.4,3.3,11,3.3c4.8,0,8.5-1.1,11.2-3.2c2.7-2.1,4.1-5,4.1-8.6c0-1.2-0.2-2.3-0.6-3.4l-0.4-0.7c0.1-0.1,0.2-0.1,0.3-0.2
			c0.1-0.1,0.2-0.1,0.3-0.2c3-1.6,5.7-3.4,8.1-5.4l0,0l2.7-2.4C89,20.2,89.1,19.8,88.8,19.5z"/>
	</g>
</g>
</svg>
